<svg width="73" height="71" viewBox="0 0 73 71" fill="none" xmlns="http://www.w3.org/2000/svg">
<path d="M70.5 35.5C70.5 53.6604 55.3436 68.5 36.5 68.5C17.6564 68.5 2.5 53.6604 2.5 35.5C2.5 17.3396 17.6564 2.5 36.5 2.5C55.3436 2.5 70.5 17.3396 70.5 35.5Z" fill="black" stroke="#BCD811" stroke-width="5"/>
<mask id="path-2-outside-1_32_17" maskUnits="userSpaceOnUse" x="17" y="20" width="38" height="30" fill="black">
<rect fill="white" x="17" y="20" width="38" height="30"/>
<path d="M23.2586 48.28C22.2086 48.28 21.3045 48.035 20.5461 47.545C19.7995 47.055 19.222 46.39 18.8136 45.55C18.417 44.71 18.2186 43.765 18.2186 42.715V27.56C18.2186 26.4983 18.417 25.5533 18.8136 24.725C19.222 23.885 19.7995 23.22 20.5461 22.73C21.3045 22.24 22.2086 21.995 23.2586 21.995C24.3086 21.995 25.207 22.24 25.9536 22.73C26.712 23.22 27.2895 23.885 27.6861 24.725C28.0945 25.565 28.2986 26.51 28.2986 27.56V42.715C28.2986 43.765 28.0945 44.71 27.6861 45.55C27.2895 46.39 26.712 47.055 25.9536 47.545C25.207 48.035 24.3086 48.28 23.2586 48.28ZM23.2586 44.605C23.7253 44.605 24.052 44.4125 24.2386 44.0275C24.4253 43.6308 24.5186 43.1933 24.5186 42.715V27.56C24.5186 27.0817 24.4195 26.65 24.2211 26.265C24.0228 25.8683 23.702 25.67 23.2586 25.67C22.827 25.67 22.5061 25.8683 22.2961 26.265C22.0978 26.65 21.9986 27.0817 21.9986 27.56V42.715C21.9986 43.1933 22.0978 43.6308 22.2961 44.0275C22.4945 44.4125 22.8153 44.605 23.2586 44.605ZM31.0426 48V22.275H34.5776L38.0776 35.68L38.3926 36.87H38.6026V22.275H42.0676V48H38.8826L35.0326 34.595L34.7176 33.405H34.5076V48H31.0426ZM44.9562 48V22.275H53.6012V26.16H48.7362V33.09H52.2362V36.87H48.7362V44.115H53.6012V48H44.9562Z"/>
</mask>
<path d="M23.2586 48.28C22.2086 48.28 21.3045 48.035 20.5461 47.545C19.7995 47.055 19.222 46.39 18.8136 45.55C18.417 44.71 18.2186 43.765 18.2186 42.715V27.56C18.2186 26.4983 18.417 25.5533 18.8136 24.725C19.222 23.885 19.7995 23.22 20.5461 22.73C21.3045 22.24 22.2086 21.995 23.2586 21.995C24.3086 21.995 25.207 22.24 25.9536 22.73C26.712 23.22 27.2895 23.885 27.6861 24.725C28.0945 25.565 28.2986 26.51 28.2986 27.56V42.715C28.2986 43.765 28.0945 44.71 27.6861 45.55C27.2895 46.39 26.712 47.055 25.9536 47.545C25.207 48.035 24.3086 48.28 23.2586 48.28ZM23.2586 44.605C23.7253 44.605 24.052 44.4125 24.2386 44.0275C24.4253 43.6308 24.5186 43.1933 24.5186 42.715V27.56C24.5186 27.0817 24.4195 26.65 24.2211 26.265C24.0228 25.8683 23.702 25.67 23.2586 25.67C22.827 25.67 22.5061 25.8683 22.2961 26.265C22.0978 26.65 21.9986 27.0817 21.9986 27.56V42.715C21.9986 43.1933 22.0978 43.6308 22.2961 44.0275C22.4945 44.4125 22.8153 44.605 23.2586 44.605ZM31.0426 48V22.275H34.5776L38.0776 35.68L38.3926 36.87H38.6026V22.275H42.0676V48H38.8826L35.0326 34.595L34.7176 33.405H34.5076V48H31.0426ZM44.9562 48V22.275H53.6012V26.16H48.7362V33.09H52.2362V36.87H48.7362V44.115H53.6012V48H44.9562Z" fill="#BCD811"/>
<path d="M20.5461 47.545L19.9975 48.3811L20.0034 48.3849L20.5461 47.545ZM18.8136 45.55L17.9093 45.977L17.9143 45.9872L18.8136 45.55ZM18.8136 24.725L17.9142 24.2878L17.9117 24.2931L18.8136 24.725ZM20.5461 22.73L20.0034 21.8901L19.9975 21.894L20.5461 22.73ZM25.9536 22.73L25.405 23.5661L25.4109 23.5699L25.9536 22.73ZM27.6861 24.725L26.7818 25.152L26.7868 25.1622L27.6861 24.725ZM27.6861 45.55L26.7867 45.1128L26.7819 45.123L27.6861 45.55ZM25.9536 47.545L25.4109 46.7051L25.405 46.709L25.9536 47.545ZM24.2386 44.0275L25.1385 44.4638L25.1435 44.4533L24.2386 44.0275ZM24.2211 26.265L23.3266 26.7122L23.3322 26.723L24.2211 26.265ZM22.2961 26.265L21.4123 25.7971L21.4072 25.807L22.2961 26.265ZM22.2961 44.0275L21.4016 44.4747L21.4072 44.4855L22.2961 44.0275ZM23.2586 47.28C22.3691 47.28 21.6605 47.0745 21.0888 46.7051L20.0034 48.3849C20.9484 48.9955 22.0481 49.28 23.2586 49.28V47.28ZM21.0948 46.709C20.5059 46.3225 20.0463 45.7984 19.713 45.1128L17.9143 45.9872C18.3976 46.9816 19.093 47.7875 19.9975 48.381L21.0948 46.709ZM19.7179 45.123C19.392 44.4329 19.2186 43.6367 19.2186 42.715H17.2186C17.2186 43.8933 17.4419 44.9871 17.9094 45.977L19.7179 45.123ZM19.2186 42.715V27.56H17.2186V42.715H19.2186ZM19.2186 27.56C19.2186 26.6245 19.3928 25.8309 19.7156 25.1569L17.9117 24.2931C17.4411 25.2758 17.2186 26.3721 17.2186 27.56H19.2186ZM19.713 25.1622C20.0463 24.4766 20.5059 23.9525 21.0948 23.566L19.9975 21.894C19.093 22.4875 18.3976 23.2934 17.9143 24.2878L19.713 25.1622ZM21.0888 23.5699C21.6605 23.2005 22.3691 22.995 23.2586 22.995V20.995C22.0481 20.995 20.9484 21.2795 20.0034 21.8901L21.0888 23.5699ZM23.2586 22.995C24.1486 22.995 24.8482 23.2007 25.405 23.566L26.5023 21.8939C25.5657 21.2793 24.4687 20.995 23.2586 20.995V22.995ZM25.4109 23.5699C26.0079 23.9557 26.4624 24.4755 26.7819 25.152L28.5904 24.298C28.1165 23.2945 27.416 22.4843 26.4963 21.8901L25.4109 23.5699ZM26.7868 25.1622C27.1211 25.8499 27.2986 26.6425 27.2986 27.56H29.2986C29.2986 26.3775 29.0679 25.2801 28.5855 24.2878L26.7868 25.1622ZM27.2986 27.56V42.715H29.2986V27.56H27.2986ZM27.2986 42.715C27.2986 43.6325 27.1211 44.4251 26.7868 45.1128L28.5855 45.9872C29.0679 44.9949 29.2986 43.8975 29.2986 42.715H27.2986ZM26.7819 45.123C26.4624 45.7995 26.0079 46.3193 25.4109 46.7051L26.4963 48.3849C27.416 47.7907 28.1165 46.9805 28.5904 45.977L26.7819 45.123ZM25.405 46.709C24.8482 47.0743 24.1486 47.28 23.2586 47.28V49.28C24.4687 49.28 25.5657 48.9957 26.5023 48.381L25.405 46.709ZM23.2586 45.605C23.6295 45.605 24.0123 45.5278 24.3613 45.3222C24.7156 45.1134 24.9706 44.81 25.1384 44.4638L23.3388 43.5912C23.328 43.6136 23.3219 43.6192 23.325 43.6158C23.3286 43.6117 23.3362 43.6048 23.3459 43.5991C23.3552 43.5936 23.3575 43.5945 23.3466 43.5971C23.3347 43.6 23.307 43.605 23.2586 43.605V45.605ZM25.1435 44.4533C25.3983 43.9117 25.5186 43.3269 25.5186 42.715H23.5186C23.5186 43.0597 23.4523 43.35 23.3338 43.6017L25.1435 44.4533ZM25.5186 42.715V27.56H23.5186V42.715H25.5186ZM25.5186 27.56C25.5186 26.9393 25.3888 26.348 25.1101 25.807L23.3322 26.723C23.4502 26.952 23.5186 27.2241 23.5186 27.56H25.5186ZM25.1156 25.8178C24.9482 25.483 24.7019 25.181 24.3576 24.9682C24.0133 24.7553 23.633 24.67 23.2586 24.67V26.67C23.2949 26.67 23.3128 26.674 23.3169 26.6751C23.3201 26.6759 23.3148 26.6748 23.3059 26.6693C23.2971 26.6639 23.2937 26.6596 23.2959 26.6621C23.2988 26.6654 23.3104 26.6797 23.3267 26.7122L25.1156 25.8178ZM23.2586 24.67C22.8845 24.67 22.5086 24.7578 22.1684 24.9682C21.8303 25.1772 21.5847 25.4716 21.4123 25.7971L23.1799 26.7329C23.1993 26.6962 23.2142 26.6776 23.2206 26.6704C23.2265 26.6639 23.2264 26.6654 23.2201 26.6693C23.2136 26.6734 23.209 26.6746 23.2105 26.6742C23.2129 26.6735 23.2275 26.67 23.2586 26.67V24.67ZM21.4072 25.807C21.1285 26.348 20.9986 26.9393 20.9986 27.56H22.9986C22.9986 27.2241 23.0671 26.952 23.1851 26.723L21.4072 25.807ZM20.9986 27.56V42.715H22.9986V27.56H20.9986ZM20.9986 42.715C20.9986 43.3361 21.1286 43.9285 21.4017 44.4747L23.1906 43.5803C23.067 43.3332 22.9986 43.0505 22.9986 42.715H20.9986ZM21.4072 44.4855C21.5779 44.8168 21.8272 45.1118 22.171 45.3181C22.5135 45.5236 22.8895 45.605 23.2586 45.605V43.605C23.2201 43.605 23.1998 43.6008 23.1934 43.5992C23.1879 43.5978 23.1918 43.5982 23.2 43.6031C23.2084 43.6081 23.2124 43.6126 23.2115 43.6116C23.21 43.6099 23.1999 43.5983 23.1851 43.5695L21.4072 44.4855ZM31.0426 48H30.0426V49H31.0426V48ZM31.0426 22.275V21.275H30.0426V22.275H31.0426ZM34.5776 22.275L35.5451 22.0224L35.35 21.275H34.5776V22.275ZM38.0776 35.68L37.11 35.9326L37.1109 35.9359L38.0776 35.68ZM38.3926 36.87L37.4259 37.1259L37.6228 37.87H38.3926V36.87ZM38.6026 36.87V37.87H39.6026V36.87H38.6026ZM38.6026 22.275V21.275H37.6026V22.275H38.6026ZM42.0676 22.275H43.0676V21.275H42.0676V22.275ZM42.0676 48V49H43.0676V48H42.0676ZM38.8826 48L37.9214 48.276L38.1294 49H38.8826V48ZM35.0326 34.595L34.0659 34.8509L34.0685 34.861L34.0714 34.871L35.0326 34.595ZM34.7176 33.405L35.6843 33.1491L35.4873 32.405H34.7176V33.405ZM34.5076 33.405V32.405H33.5076V33.405H34.5076ZM34.5076 48V49H35.5076V48H34.5076ZM32.0426 48V22.275H30.0426V48H32.0426ZM31.0426 23.275H34.5776V21.275H31.0426V23.275ZM33.61 22.5276L37.11 35.9326L39.0451 35.4274L35.5451 22.0224L33.61 22.5276ZM37.1109 35.9359L37.4259 37.1259L39.3593 36.6141L39.0443 35.4241L37.1109 35.9359ZM38.3926 37.87H38.6026V35.87H38.3926V37.87ZM39.6026 36.87V22.275H37.6026V36.87H39.6026ZM38.6026 23.275H42.0676V21.275H38.6026V23.275ZM41.0676 22.275V48H43.0676V22.275H41.0676ZM42.0676 47H38.8826V49H42.0676V47ZM39.8437 47.724L35.9937 34.319L34.0714 34.871L37.9214 48.276L39.8437 47.724ZM35.9993 34.3391L35.6843 33.1491L33.7509 33.6609L34.0659 34.8509L35.9993 34.3391ZM34.7176 32.405H34.5076V34.405H34.7176V32.405ZM33.5076 33.405V48H35.5076V33.405H33.5076ZM34.5076 47H31.0426V49H34.5076V47ZM44.9562 48H43.9562V49H44.9562V48ZM44.9562 22.275V21.275H43.9562V22.275H44.9562ZM53.6012 22.275H54.6012V21.275H53.6012V22.275ZM53.6012 26.16V27.16H54.6012V26.16H53.6012ZM48.7362 26.16V25.16H47.7362V26.16H48.7362ZM48.7362 33.09H47.7362V34.09H48.7362V33.09ZM52.2362 33.09H53.2362V32.09H52.2362V33.09ZM52.2362 36.87V37.87H53.2362V36.87H52.2362ZM48.7362 36.87V35.87H47.7362V36.87H48.7362ZM48.7362 44.115H47.7362V45.115H48.7362V44.115ZM53.6012 44.115H54.6012V43.115H53.6012V44.115ZM53.6012 48V49H54.6012V48H53.6012ZM45.9562 48V22.275H43.9562V48H45.9562ZM44.9562 23.275H53.6012V21.275H44.9562V23.275ZM52.6012 22.275V26.16H54.6012V22.275H52.6012ZM53.6012 25.16H48.7362V27.16H53.6012V25.16ZM47.7362 26.16V33.09H49.7362V26.16H47.7362ZM48.7362 34.09H52.2362V32.09H48.7362V34.09ZM51.2362 33.09V36.87H53.2362V33.09H51.2362ZM52.2362 35.87H48.7362V37.87H52.2362V35.87ZM47.7362 36.87V44.115H49.7362V36.87H47.7362ZM48.7362 45.115H53.6012V43.115H48.7362V45.115ZM52.6012 44.115V48H54.6012V44.115H52.6012ZM53.6012 47H44.9562V49H53.6012V47Z" fill="black" mask="url(#path-2-outside-1_32_17)"/>
</svg>
